<svg width="22" height="22" viewBox="0 0 22 22" fill="none" xmlns="http://www.w3.org/2000/svg">
<path d="M10.9997 20.8543C5.56384 20.8543 1.14551 16.436 1.14551 11.0002C1.14551 5.56433 5.56384 1.146 10.9997 1.146C16.4355 1.146 20.8538 5.56433 20.8538 11.0002C20.8538 16.436 16.4355 20.8543 10.9997 20.8543ZM10.9997 2.521C6.32467 2.521 2.52051 6.32516 2.52051 11.0002C2.52051 15.6752 6.32467 19.4793 10.9997 19.4793C15.6747 19.4793 19.4788 15.6752 19.4788 11.0002C19.4788 6.32516 15.6747 2.521 10.9997 2.521Z" fill="white"/>
<path d="M9.69832 14.2816C9.51499 14.2816 9.34082 14.2083 9.21249 14.08L6.61832 11.4858C6.35249 11.22 6.35249 10.78 6.61832 10.5141C6.88415 10.2483 7.32415 10.2483 7.58999 10.5141L9.69832 12.6225L14.41 7.9108C14.6758 7.64497 15.1158 7.64497 15.3817 7.9108C15.6475 8.17663 15.6475 8.61663 15.3817 8.88247L10.1842 14.08C10.0558 14.2083 9.88165 14.2816 9.69832 14.2816Z" fill="white"/>
</svg>
